<?xml version="1.0" encoding="utf-8"?>
<!-- Generator: Adobe Illustrator 26.0.3, SVG Export Plug-In . SVG Version: 6.00 Build 0)  -->
<svg version="1.0" id="katman_1" xmlns="http://www.w3.org/2000/svg" xmlns:xlink="http://www.w3.org/1999/xlink" x="0px" y="0px"
	 viewBox="0 0 600 450" style="enable-background:new 0 0 600 450;" xml:space="preserve">
<style type="text/css">
	.st0{fill-rule:evenodd;clip-rule:evenodd;fill:#22A849;}
	.st1{fill-rule:evenodd;clip-rule:evenodd;fill:#FFFFFF;}
</style>
<path class="st0" d="M299.6,50.1h131.6c24.7,0,44.2,19.5,44.2,44.2v131.6c0,96.6-78.1,174.7-174.7,174.7h-1
	c-96.6,0-174.7-78.1-174.7-174.7C124.9,129.3,203,51.1,299.6,50.1z"/>
<path class="st1" d="M300.1,126.8c-42.3,0-76.7,34.5-76.7,76.8c0,0,0,0,0,1v51.2c0,13.8,11.8,25.6,25.6,25.6h21.6v-60.1h-29.5v-16.7
	c1-33.5,29.5-59.1,61.9-57.1c31.5,1,56,26.6,57,57.1v16.7h-29.5v60.1h19.7v1c0,12.8-10.8,23.6-23.6,23.6h-23.6c-2,0-3.9,1-3.9,3
	c0,2,2,3.9,3.9,3.9h23.6c16.7,0,30.5-13.8,30.5-30.5v-2c11.8-3,19.7-12.8,19.7-24.6v-51.2C377.8,161.3,343.4,126.8,300.1,126.8
	C301.1,126.8,300.1,126.8,300.1,126.8z"/>
</svg>
