<svg version="1.2" xmlns="http://www.w3.org/2000/svg" viewBox="0 0 1549 904" width="1549" height="904">
	<title>MNDY_BIG</title>
	<style>
		.s0 { fill: #fa265d } 
		.s1 { fill: #ffcc00 } 
		.s2 { fill: #00c972 } 
	</style>
	<path class="s0" d="m192.5 902.6c-69.6 0-133.5-37-167.3-94.5-33.9-59.4-32.6-130.9 4.5-188.3l346.1-529.3c35.8-57.5 100.9-91.3 170.6-90 69.6 1.9 133.4 40.2 166 99.6 32.6 58.7 28.1 130.2-10.8 186.4l-346.2 529.3c-33.9 54.3-95.8 86.8-162.9 86.8z"/>
	<path class="s1" d="m782 902.6c-69.6 0-133.5-35.7-167.3-94.5-33.9-59.4-31.3-130.9 4.5-186.4l346.1-529.3c35.8-57.5 100.9-93.2 170.6-91.9 71.5 1.9 134.7 40.2 166 99.6 32.6 60.6 28.1 131.5-12.8 187.7l-344.2 528c-35.8 54.3-95.8 86.8-162.9 86.8z"/>
	<path fill-rule="evenodd" class="s2" d="m1356.8 903.9c-105.9 0-191.6-85.6-191.6-191.5 0-106 85.7-191.6 191.6-191.6 106 0 191.6 85.6 191.6 191.6 0 105.9-85.6 191.5-191.6 191.5z"/>
</svg>