<svg version="1.2" xmlns="http://www.w3.org/2000/svg" viewBox="0 0 1583 1588" width="1583" height="1588">
	<title>slacksss-svg</title>
	<style>
		.s0 { fill: #44bedf } 
		.s1 { fill: #2eb67d } 
		.s2 { fill: #ecb22e } 
		.s3 { fill: #e01e5a } 
	</style>
	<path id="Layer" class="s0" d="m580.3 0.9c-87.4 0-158.2 71.1-158.2 158.7-0.1 20.8 4 41.5 12 60.7 7.9 19.3 19.6 36.7 34.3 51.5 14.7 14.7 32.1 26.4 51.3 34.4 19.2 8 39.8 12.1 60.6 12.1h158.3v-158.7c0-20.8-4-41.4-12-60.7-7.9-19.2-19.6-36.7-34.3-51.4-14.7-14.8-32.1-26.5-51.3-34.4-19.3-8-39.9-12.2-60.7-12.2zm0 423.2h-422c-87.4 0-158.3 71.1-158.3 158.8 0 87.6 70.9 158.7 158.3 158.7h422.1c87.3 0 158.2-71.1 158.2-158.7 0-87.7-70.9-158.8-158.3-158.8z"/>
	<path id="Layer" class="s1" d="m1582.8 582.9c0-87.7-70.9-158.8-158.3-158.8-87.4 0-158.3 71.1-158.3 158.8v158.7h158.3c20.8-0.1 41.4-4.2 60.6-12.2 19.2-8 36.7-19.6 51.4-34.4 14.7-14.7 26.3-32.2 34.3-51.5 7.9-19.2 12-39.8 12-60.6zm-422.1 0v-423.3c0-20.8-4.1-41.4-12-60.7-8-19.2-19.6-36.7-34.3-51.4-14.7-14.8-32.2-26.5-51.4-34.4-19.2-8-39.8-12.2-60.6-12.2-87.4 0-158.3 71.1-158.3 158.7v423.2c0 87.7 70.9 158.8 158.3 158.8 20.8 0 41.4-4.2 60.6-12.1 19.2-8 36.7-19.7 51.4-34.5 14.7-14.7 26.3-32.2 34.3-51.4 7.9-19.3 12-39.9 12-60.7z"/>
	<path id="Layer" class="s2" d="m1002.4 1588c20.8 0 41.4-4.1 60.6-12.1 19.2-8 36.7-19.7 51.4-34.4 14.7-14.8 26.3-32.3 34.3-51.5 7.9-19.3 12-39.9 12-60.7 0-20.8-4.1-41.4-12-60.7-8-19.2-19.6-36.7-34.3-51.5-14.7-14.7-32.2-26.4-51.4-34.4-19.2-8-39.8-12.1-60.6-12.1h-158.3v158.7c0 87.6 70.9 158.7 158.3 158.7zm0-423.2h422.1c87.4 0 158.3-71.1 158.3-158.7 0-20.9-4.1-41.5-12-60.7-8-19.3-19.6-36.8-34.3-51.5-14.7-14.7-32.2-26.4-51.4-34.4-19.2-8-39.8-12.1-60.6-12.1h-422.1c-87.4 0-158.3 71-158.3 158.7 0 20.8 4.1 41.4 12 60.6 8 19.3 19.6 36.8 34.3 51.5 14.7 14.8 32.2 26.5 51.4 34.4 19.2 8 39.8 12.1 60.6 12.2z"/>
	<g id="Layer">
		<path id="Layer" class="s3" d="m0 1006.1c0 20.8 4.1 41.4 12 60.6 7.9 19.3 19.6 36.8 34.3 51.5 14.7 14.8 32.1 26.5 51.4 34.4 19.2 8 39.8 12.1 60.6 12.2 20.8-0.1 41.4-4.2 60.6-12.2 19.2-7.9 36.7-19.6 51.4-34.4 14.6-14.7 26.3-32.2 34.2-51.4 8-19.3 12.1-39.9 12.1-60.7v-158.7h-158.3c-87.4 0-158.3 71-158.3 158.7zm422.1 0v423.2c0 87.6 70.8 158.7 158.2 158.7 20.8 0 41.4-4.1 60.7-12.1 19.2-8 36.6-19.7 51.3-34.4 14.7-14.8 26.4-32.3 34.3-51.5 8-19.3 12-39.9 12-60.7v-423.2c0-20.9-4-41.5-12-60.7-7.9-19.3-19.6-36.8-34.3-51.5-14.7-14.7-32.1-26.4-51.3-34.4-19.3-8-39.9-12.1-60.7-12.1-87.4 0-158.2 71-158.2 158.7z"/>
	</g>
</svg>